<svg xmlns="http://www.w3.org/2000/svg" xmlns:xlink="http://www.w3.org/1999/xlink" width="256" height="256" viewBox="0 0 256 256">
  <defs>
    <filter id="Ellipse_2" x="102" y="105" width="52" height="52" filterUnits="userSpaceOnUse">
      <feOffset dy="3" input="SourceAlpha"/>
      <feGaussianBlur stdDeviation="3" result="blur"/>
      <feFlood flood-color="#fff" flood-opacity="0.341"/>
      <feComposite operator="in" in2="blur"/>
      <feComposite in="SourceGraphic"/>
    </filter>
    <filter id="Ellipse_5" x="144" y="105" width="52" height="52" filterUnits="userSpaceOnUse">
      <feOffset dy="3" input="SourceAlpha"/>
      <feGaussianBlur stdDeviation="3" result="blur-2"/>
      <feFlood flood-color="#fff" flood-opacity="0.341"/>
      <feComposite operator="in" in2="blur-2"/>
      <feComposite in="SourceGraphic"/>
    </filter>
    <filter id="Ellipse_6" x="186" y="105" width="52" height="52" filterUnits="userSpaceOnUse">
      <feOffset dy="3" input="SourceAlpha"/>
      <feGaussianBlur stdDeviation="3" result="blur-3"/>
      <feFlood flood-color="#fff" flood-opacity="0.341"/>
      <feComposite operator="in" in2="blur-3"/>
      <feComposite in="SourceGraphic"/>
    </filter>
    <filter id="Ellipse_3" x="60" y="105" width="52" height="52" filterUnits="userSpaceOnUse">
      <feOffset dy="3" input="SourceAlpha"/>
      <feGaussianBlur stdDeviation="3" result="blur-4"/>
      <feFlood flood-color="#fff" flood-opacity="0.341"/>
      <feComposite operator="in" in2="blur-4"/>
      <feComposite in="SourceGraphic"/>
    </filter>
    <filter id="Ellipse_4" x="18" y="105" width="52" height="52" filterUnits="userSpaceOnUse">
      <feOffset dy="3" input="SourceAlpha"/>
      <feGaussianBlur stdDeviation="3" result="blur-5"/>
      <feFlood flood-color="#fff" flood-opacity="0.341"/>
      <feComposite operator="in" in2="blur-5"/>
      <feComposite in="SourceGraphic"/>
    </filter>
    <clipPath id="clip-_5_horizontal">
      <rect width="256" height="256"/>
    </clipPath>
  </defs>
  <g id="_5_horizontal" data-name="5_horizontal" clip-path="url(#clip-_5_horizontal)">
    <g id="Group_3" data-name="Group 3" transform="translate(256 256) rotate(180)">
      <g transform="matrix(-1, 0, 0, -1, 256, 256)" filter="url(#Ellipse_2)">
        <circle id="Ellipse_2-2" data-name="Ellipse 2" cx="17" cy="17" r="17" transform="translate(145 145) rotate(180)" fill="#696969"/>
      </g>
      <g transform="matrix(-1, 0, 0, -1, 256, 256)" filter="url(#Ellipse_5)">
        <circle id="Ellipse_5-2" data-name="Ellipse 5" cx="17" cy="17" r="17" transform="translate(187 145) rotate(180)" fill="#696969"/>
      </g>
      <g transform="matrix(-1, 0, 0, -1, 256, 256)" filter="url(#Ellipse_6)">
        <circle id="Ellipse_6-2" data-name="Ellipse 6" cx="17" cy="17" r="17" transform="translate(229 145) rotate(180)" fill="#696969"/>
      </g>
      <g transform="matrix(-1, 0, 0, -1, 256, 256)" filter="url(#Ellipse_3)">
        <circle id="Ellipse_3-2" data-name="Ellipse 3" cx="17" cy="17" r="17" transform="translate(103 145) rotate(180)" fill="#696969"/>
      </g>
      <g transform="matrix(-1, 0, 0, -1, 256, 256)" filter="url(#Ellipse_4)">
        <circle id="Ellipse_4-2" data-name="Ellipse 4" cx="17" cy="17" r="17" transform="translate(61 145) rotate(180)" fill="#696969"/>
      </g>
    </g>
  </g>
</svg>
