<svg xmlns="http://www.w3.org/2000/svg" xmlns:xlink="http://www.w3.org/1999/xlink" width="256" height="256" viewBox="0 0 256 256">
  <defs>
    <filter id="Ellipse_2" x="94.958" y="97.958" width="66.083" height="66.083" filterUnits="userSpaceOnUse">
      <feOffset dy="3" input="SourceAlpha"/>
      <feGaussianBlur stdDeviation="3" result="blur"/>
      <feFlood flood-color="#fff" flood-opacity="0.341"/>
      <feComposite operator="in" in2="blur"/>
      <feComposite in="SourceGraphic"/>
    </filter>
    <filter id="Ellipse_11" x="65.26" y="68.26" width="66.083" height="66.083" filterUnits="userSpaceOnUse">
      <feOffset dy="3" input="SourceAlpha"/>
      <feGaussianBlur stdDeviation="3" result="blur-2"/>
      <feFlood flood-color="#fff" flood-opacity="0.341"/>
      <feComposite operator="in" in2="blur-2"/>
      <feComposite in="SourceGraphic"/>
    </filter>
    <filter id="Ellipse_15" x="124.657" y="127.657" width="66.083" height="66.083" filterUnits="userSpaceOnUse">
      <feOffset dy="3" input="SourceAlpha"/>
      <feGaussianBlur stdDeviation="3" result="blur-3"/>
      <feFlood flood-color="#fff" flood-opacity="0.341"/>
      <feComposite operator="in" in2="blur-3"/>
      <feComposite in="SourceGraphic"/>
    </filter>
    <filter id="Ellipse_13" x="35.561" y="38.561" width="66.083" height="66.083" filterUnits="userSpaceOnUse">
      <feOffset dy="3" input="SourceAlpha"/>
      <feGaussianBlur stdDeviation="3" result="blur-4"/>
      <feFlood flood-color="#fff" flood-opacity="0.341"/>
      <feComposite operator="in" in2="blur-4"/>
      <feComposite in="SourceGraphic"/>
    </filter>
    <filter id="Ellipse_17" x="154.355" y="157.355" width="66.083" height="66.083" filterUnits="userSpaceOnUse">
      <feOffset dy="3" input="SourceAlpha"/>
      <feGaussianBlur stdDeviation="3" result="blur-5"/>
      <feFlood flood-color="#fff" flood-opacity="0.341"/>
      <feComposite operator="in" in2="blur-5"/>
      <feComposite in="SourceGraphic"/>
    </filter>
    <filter id="Ellipse_5" x="124.657" y="68.26" width="66.083" height="66.083" filterUnits="userSpaceOnUse">
      <feOffset dy="3" input="SourceAlpha"/>
      <feGaussianBlur stdDeviation="3" result="blur-6"/>
      <feFlood flood-color="#fff" flood-opacity="0.341"/>
      <feComposite operator="in" in2="blur-6"/>
      <feComposite in="SourceGraphic"/>
    </filter>
    <filter id="Ellipse_6" x="154.355" y="38.561" width="66.083" height="66.083" filterUnits="userSpaceOnUse">
      <feOffset dy="3" input="SourceAlpha"/>
      <feGaussianBlur stdDeviation="3" result="blur-7"/>
      <feFlood flood-color="#fff" flood-opacity="0.341"/>
      <feComposite operator="in" in2="blur-7"/>
      <feComposite in="SourceGraphic"/>
    </filter>
    <filter id="Ellipse_3" x="65.26" y="127.657" width="66.083" height="66.083" filterUnits="userSpaceOnUse">
      <feOffset dy="3" input="SourceAlpha"/>
      <feGaussianBlur stdDeviation="3" result="blur-8"/>
      <feFlood flood-color="#fff" flood-opacity="0.341"/>
      <feComposite operator="in" in2="blur-8"/>
      <feComposite in="SourceGraphic"/>
    </filter>
    <filter id="Ellipse_4" x="35.561" y="157.355" width="66.083" height="66.083" filterUnits="userSpaceOnUse">
      <feOffset dy="3" input="SourceAlpha"/>
      <feGaussianBlur stdDeviation="3" result="blur-9"/>
      <feFlood flood-color="#fff" flood-opacity="0.341"/>
      <feComposite operator="in" in2="blur-9"/>
      <feComposite in="SourceGraphic"/>
    </filter>
    <clipPath id="clip-_5_plus_rotated">
      <rect width="256" height="256"/>
    </clipPath>
  </defs>
  <g id="_5_plus_rotated" data-name="5_plus_rotated" clip-path="url(#clip-_5_plus_rotated)">
    <g id="Group_3" data-name="Group 3" transform="translate(309.019 128) rotate(135)">
      <g transform="matrix(-0.71, -0.71, 0.71, -0.71, 128, 309.02)" filter="url(#Ellipse_2)">
        <circle id="Ellipse_2-2" data-name="Ellipse 2" cx="17" cy="17" r="17" transform="translate(152.04 128) rotate(135)" fill="#696969"/>
      </g>
      <g transform="matrix(-0.71, -0.71, 0.71, -0.71, 128, 309.02)" filter="url(#Ellipse_11)">
        <circle id="Ellipse_11-2" data-name="Ellipse 11" cx="17" cy="17" r="17" transform="translate(122.34 98.3) rotate(135)" fill="#696969"/>
      </g>
      <g transform="matrix(-0.71, -0.71, 0.71, -0.71, 128, 309.02)" filter="url(#Ellipse_15)">
        <circle id="Ellipse_15-2" data-name="Ellipse 15" cx="17" cy="17" r="17" transform="translate(181.74 157.7) rotate(135)" fill="#696969"/>
      </g>
      <g transform="matrix(-0.71, -0.71, 0.71, -0.71, 128, 309.02)" filter="url(#Ellipse_13)">
        <circle id="Ellipse_13-2" data-name="Ellipse 13" cx="17" cy="17" r="17" transform="translate(92.64 68.6) rotate(135)" fill="#696969"/>
      </g>
      <g transform="matrix(-0.71, -0.71, 0.71, -0.71, 128, 309.02)" filter="url(#Ellipse_17)">
        <circle id="Ellipse_17-2" data-name="Ellipse 17" cx="17" cy="17" r="17" transform="translate(211.44 187.4) rotate(135)" fill="#696969"/>
      </g>
      <g transform="matrix(-0.71, -0.71, 0.71, -0.71, 128, 309.02)" filter="url(#Ellipse_5)">
        <circle id="Ellipse_5-2" data-name="Ellipse 5" cx="17" cy="17" r="17" transform="translate(181.74 98.3) rotate(135)" fill="#696969"/>
      </g>
      <g transform="matrix(-0.71, -0.71, 0.71, -0.71, 128, 309.02)" filter="url(#Ellipse_6)">
        <circle id="Ellipse_6-2" data-name="Ellipse 6" cx="17" cy="17" r="17" transform="translate(211.44 68.6) rotate(135)" fill="#696969"/>
      </g>
      <g transform="matrix(-0.71, -0.71, 0.71, -0.71, 128, 309.02)" filter="url(#Ellipse_3)">
        <circle id="Ellipse_3-2" data-name="Ellipse 3" cx="17" cy="17" r="17" transform="translate(122.34 157.7) rotate(135)" fill="#696969"/>
      </g>
      <g transform="matrix(-0.71, -0.71, 0.71, -0.71, 128, 309.02)" filter="url(#Ellipse_4)">
        <circle id="Ellipse_4-2" data-name="Ellipse 4" cx="17" cy="17" r="17" transform="translate(92.64 187.4) rotate(135)" fill="#696969"/>
      </g>
    </g>
  </g>
</svg>
