<svg xmlns="http://www.w3.org/2000/svg" xmlns:xlink="http://www.w3.org/1999/xlink" width="256" height="256" viewBox="0 0 256 256">
  <defs>
    <filter id="Ellipse_2" x="94.958" y="97.958" width="66.083" height="66.083" filterUnits="userSpaceOnUse">
      <feOffset dy="3" input="SourceAlpha"/>
      <feGaussianBlur stdDeviation="3" result="blur"/>
      <feFlood flood-color="#fff" flood-opacity="0.341"/>
      <feComposite operator="in" in2="blur"/>
      <feComposite in="SourceGraphic"/>
    </filter>
    <filter id="Ellipse_11" x="65.26" y="127.657" width="66.083" height="66.083" filterUnits="userSpaceOnUse">
      <feOffset dy="3" input="SourceAlpha"/>
      <feGaussianBlur stdDeviation="3" result="blur-2"/>
      <feFlood flood-color="#fff" flood-opacity="0.341"/>
      <feComposite operator="in" in2="blur-2"/>
      <feComposite in="SourceGraphic"/>
    </filter>
    <filter id="Ellipse_15" x="124.657" y="68.26" width="66.083" height="66.083" filterUnits="userSpaceOnUse">
      <feOffset dy="3" input="SourceAlpha"/>
      <feGaussianBlur stdDeviation="3" result="blur-3"/>
      <feFlood flood-color="#fff" flood-opacity="0.341"/>
      <feComposite operator="in" in2="blur-3"/>
      <feComposite in="SourceGraphic"/>
    </filter>
    <filter id="Ellipse_27" x="184.054" y="127.657" width="66.083" height="66.083" filterUnits="userSpaceOnUse">
      <feOffset dy="3" input="SourceAlpha"/>
      <feGaussianBlur stdDeviation="3" result="blur-4"/>
      <feFlood flood-color="#fff" flood-opacity="0.341"/>
      <feComposite operator="in" in2="blur-4"/>
      <feComposite in="SourceGraphic"/>
    </filter>
    <filter id="Ellipse_13" x="35.561" y="157.355" width="66.083" height="66.083" filterUnits="userSpaceOnUse">
      <feOffset dy="3" input="SourceAlpha"/>
      <feGaussianBlur stdDeviation="3" result="blur-5"/>
      <feFlood flood-color="#fff" flood-opacity="0.341"/>
      <feComposite operator="in" in2="blur-5"/>
      <feComposite in="SourceGraphic"/>
    </filter>
    <filter id="Ellipse_17" x="154.355" y="38.561" width="66.083" height="66.083" filterUnits="userSpaceOnUse">
      <feOffset dy="3" input="SourceAlpha"/>
      <feGaussianBlur stdDeviation="3" result="blur-6"/>
      <feFlood flood-color="#fff" flood-opacity="0.341"/>
      <feComposite operator="in" in2="blur-6"/>
      <feComposite in="SourceGraphic"/>
    </filter>
    <filter id="Ellipse_31" x="124.657" y="187.054" width="66.083" height="66.083" filterUnits="userSpaceOnUse">
      <feOffset dy="3" input="SourceAlpha"/>
      <feGaussianBlur stdDeviation="3" result="blur-7"/>
      <feFlood flood-color="#fff" flood-opacity="0.341"/>
      <feComposite operator="in" in2="blur-7"/>
      <feComposite in="SourceGraphic"/>
    </filter>
    <filter id="Ellipse_5" x="65.26" y="68.26" width="66.083" height="66.083" filterUnits="userSpaceOnUse">
      <feOffset dy="3" input="SourceAlpha"/>
      <feGaussianBlur stdDeviation="3" result="blur-8"/>
      <feFlood flood-color="#fff" flood-opacity="0.341"/>
      <feComposite operator="in" in2="blur-8"/>
      <feComposite in="SourceGraphic"/>
    </filter>
    <filter id="Ellipse_23" x="35.561" y="97.958" width="66.083" height="66.083" filterUnits="userSpaceOnUse">
      <feOffset dy="3" input="SourceAlpha"/>
      <feGaussianBlur stdDeviation="3" result="blur-9"/>
      <feFlood flood-color="#fff" flood-opacity="0.341"/>
      <feComposite operator="in" in2="blur-9"/>
      <feComposite in="SourceGraphic"/>
    </filter>
    <filter id="Ellipse_25" x="5.863" y="127.657" width="66.083" height="66.083" filterUnits="userSpaceOnUse">
      <feOffset dy="3" input="SourceAlpha"/>
      <feGaussianBlur stdDeviation="3" result="blur-10"/>
      <feFlood flood-color="#fff" flood-opacity="0.341"/>
      <feComposite operator="in" in2="blur-10"/>
      <feComposite in="SourceGraphic"/>
    </filter>
    <filter id="Ellipse_19" x="94.958" y="38.561" width="66.083" height="66.083" filterUnits="userSpaceOnUse">
      <feOffset dy="3" input="SourceAlpha"/>
      <feGaussianBlur stdDeviation="3" result="blur-11"/>
      <feFlood flood-color="#fff" flood-opacity="0.341"/>
      <feComposite operator="in" in2="blur-11"/>
      <feComposite in="SourceGraphic"/>
    </filter>
    <filter id="Ellipse_29" x="154.355" y="97.958" width="66.083" height="66.083" filterUnits="userSpaceOnUse">
      <feOffset dy="3" input="SourceAlpha"/>
      <feGaussianBlur stdDeviation="3" result="blur-12"/>
      <feFlood flood-color="#fff" flood-opacity="0.341"/>
      <feComposite operator="in" in2="blur-12"/>
      <feComposite in="SourceGraphic"/>
    </filter>
    <filter id="Ellipse_33" x="65.26" y="187.054" width="66.083" height="66.083" filterUnits="userSpaceOnUse">
      <feOffset dy="3" input="SourceAlpha"/>
      <feGaussianBlur stdDeviation="3" result="blur-13"/>
      <feFlood flood-color="#fff" flood-opacity="0.341"/>
      <feComposite operator="in" in2="blur-13"/>
      <feComposite in="SourceGraphic"/>
    </filter>
    <filter id="Ellipse_21" x="124.657" y="8.863" width="66.083" height="66.083" filterUnits="userSpaceOnUse">
      <feOffset dy="3" input="SourceAlpha"/>
      <feGaussianBlur stdDeviation="3" result="blur-14"/>
      <feFlood flood-color="#fff" flood-opacity="0.341"/>
      <feComposite operator="in" in2="blur-14"/>
      <feComposite in="SourceGraphic"/>
    </filter>
    <filter id="Ellipse_26" x="184.054" y="68.26" width="66.083" height="66.083" filterUnits="userSpaceOnUse">
      <feOffset dy="3" input="SourceAlpha"/>
      <feGaussianBlur stdDeviation="3" result="blur-15"/>
      <feFlood flood-color="#fff" flood-opacity="0.341"/>
      <feComposite operator="in" in2="blur-15"/>
      <feComposite in="SourceGraphic"/>
    </filter>
    <filter id="Ellipse_30" x="94.958" y="157.355" width="66.083" height="66.083" filterUnits="userSpaceOnUse">
      <feOffset dy="3" input="SourceAlpha"/>
      <feGaussianBlur stdDeviation="3" result="blur-16"/>
      <feFlood flood-color="#fff" flood-opacity="0.341"/>
      <feComposite operator="in" in2="blur-16"/>
      <feComposite in="SourceGraphic"/>
    </filter>
    <filter id="Ellipse_6" x="35.561" y="38.561" width="66.083" height="66.083" filterUnits="userSpaceOnUse">
      <feOffset dy="3" input="SourceAlpha"/>
      <feGaussianBlur stdDeviation="3" result="blur-17"/>
      <feFlood flood-color="#fff" flood-opacity="0.341"/>
      <feComposite operator="in" in2="blur-17"/>
      <feComposite in="SourceGraphic"/>
    </filter>
    <filter id="Ellipse_22" x="5.863" y="68.26" width="66.083" height="66.083" filterUnits="userSpaceOnUse">
      <feOffset dy="3" input="SourceAlpha"/>
      <feGaussianBlur stdDeviation="3" result="blur-18"/>
      <feFlood flood-color="#fff" flood-opacity="0.341"/>
      <feComposite operator="in" in2="blur-18"/>
      <feComposite in="SourceGraphic"/>
    </filter>
    <filter id="Ellipse_18" x="65.26" y="8.863" width="66.083" height="66.083" filterUnits="userSpaceOnUse">
      <feOffset dy="3" input="SourceAlpha"/>
      <feGaussianBlur stdDeviation="3" result="blur-19"/>
      <feFlood flood-color="#fff" flood-opacity="0.341"/>
      <feComposite operator="in" in2="blur-19"/>
      <feComposite in="SourceGraphic"/>
    </filter>
    <filter id="Ellipse_3" x="124.657" y="127.657" width="66.083" height="66.083" filterUnits="userSpaceOnUse">
      <feOffset dy="3" input="SourceAlpha"/>
      <feGaussianBlur stdDeviation="3" result="blur-20"/>
      <feFlood flood-color="#fff" flood-opacity="0.341"/>
      <feComposite operator="in" in2="blur-20"/>
      <feComposite in="SourceGraphic"/>
    </filter>
    <filter id="Ellipse_4" x="154.355" y="157.355" width="66.083" height="66.083" filterUnits="userSpaceOnUse">
      <feOffset dy="3" input="SourceAlpha"/>
      <feGaussianBlur stdDeviation="3" result="blur-21"/>
      <feFlood flood-color="#fff" flood-opacity="0.341"/>
      <feComposite operator="in" in2="blur-21"/>
      <feComposite in="SourceGraphic"/>
    </filter>
    <clipPath id="clip-missing_corners_rotated">
      <rect width="256" height="256"/>
    </clipPath>
  </defs>
  <g id="missing_corners_rotated" clip-path="url(#clip-missing_corners_rotated)">
    <g id="Group_3" data-name="Group 3" transform="translate(128 -53.019) rotate(45)">
      <g transform="matrix(0.71, -0.71, 0.71, 0.71, -53.02, 128)" filter="url(#Ellipse_2)">
        <circle id="Ellipse_2-2" data-name="Ellipse 2" cx="17" cy="17" r="17" transform="translate(128 103.96) rotate(45)" fill="#696969"/>
      </g>
      <g transform="matrix(0.71, -0.71, 0.71, 0.71, -53.02, 128)" filter="url(#Ellipse_11)">
        <circle id="Ellipse_11-2" data-name="Ellipse 11" cx="17" cy="17" r="17" transform="translate(98.3 133.66) rotate(45)" fill="#696969"/>
      </g>
      <g transform="matrix(0.71, -0.71, 0.71, 0.71, -53.02, 128)" filter="url(#Ellipse_15)">
        <circle id="Ellipse_15-2" data-name="Ellipse 15" cx="17" cy="17" r="17" transform="translate(157.7 74.26) rotate(45)" fill="#696969"/>
      </g>
      <g transform="matrix(0.71, -0.71, 0.71, 0.71, -53.02, 128)" filter="url(#Ellipse_27)">
        <circle id="Ellipse_27-2" data-name="Ellipse 27" cx="17" cy="17" r="17" transform="translate(217.1 133.66) rotate(45)" fill="#696969"/>
      </g>
      <g transform="matrix(0.71, -0.71, 0.71, 0.71, -53.02, 128)" filter="url(#Ellipse_13)">
        <circle id="Ellipse_13-2" data-name="Ellipse 13" cx="17" cy="17" r="17" transform="translate(68.6 163.36) rotate(45)" fill="#696969"/>
      </g>
      <g transform="matrix(0.71, -0.71, 0.71, 0.71, -53.02, 128)" filter="url(#Ellipse_17)">
        <circle id="Ellipse_17-2" data-name="Ellipse 17" cx="17" cy="17" r="17" transform="translate(187.4 44.56) rotate(45)" fill="#696969"/>
      </g>
      <g transform="matrix(0.71, -0.71, 0.71, 0.71, -53.02, 128)" filter="url(#Ellipse_31)">
        <circle id="Ellipse_31-2" data-name="Ellipse 31" cx="17" cy="17" r="17" transform="translate(157.7 193.05) rotate(45)" fill="#696969"/>
      </g>
      <g transform="matrix(0.71, -0.71, 0.71, 0.71, -53.02, 128)" filter="url(#Ellipse_5)">
        <circle id="Ellipse_5-2" data-name="Ellipse 5" cx="17" cy="17" r="17" transform="translate(98.3 74.26) rotate(45)" fill="#696969"/>
      </g>
      <g transform="matrix(0.71, -0.71, 0.71, 0.71, -53.02, 128)" filter="url(#Ellipse_23)">
        <circle id="Ellipse_23-2" data-name="Ellipse 23" cx="17" cy="17" r="17" transform="translate(68.6 103.96) rotate(45)" fill="#696969"/>
      </g>
      <g transform="matrix(0.71, -0.71, 0.71, 0.71, -53.02, 128)" filter="url(#Ellipse_25)">
        <circle id="Ellipse_25-2" data-name="Ellipse 25" cx="17" cy="17" r="17" transform="translate(38.9 133.66) rotate(45)" fill="#696969"/>
      </g>
      <g transform="matrix(0.71, -0.71, 0.71, 0.71, -53.02, 128)" filter="url(#Ellipse_19)">
        <circle id="Ellipse_19-2" data-name="Ellipse 19" cx="17" cy="17" r="17" transform="translate(128 44.56) rotate(45)" fill="#696969"/>
      </g>
      <g transform="matrix(0.71, -0.71, 0.71, 0.71, -53.02, 128)" filter="url(#Ellipse_29)">
        <circle id="Ellipse_29-2" data-name="Ellipse 29" cx="17" cy="17" r="17" transform="translate(187.4 103.96) rotate(45)" fill="#696969"/>
      </g>
      <g transform="matrix(0.71, -0.71, 0.71, 0.71, -53.02, 128)" filter="url(#Ellipse_33)">
        <circle id="Ellipse_33-2" data-name="Ellipse 33" cx="17" cy="17" r="17" transform="translate(98.3 193.05) rotate(45)" fill="#696969"/>
      </g>
      <g transform="matrix(0.71, -0.71, 0.71, 0.71, -53.02, 128)" filter="url(#Ellipse_21)">
        <circle id="Ellipse_21-2" data-name="Ellipse 21" cx="17" cy="17" r="17" transform="translate(157.7 14.86) rotate(45)" fill="#696969"/>
      </g>
      <g transform="matrix(0.71, -0.71, 0.71, 0.71, -53.02, 128)" filter="url(#Ellipse_26)">
        <circle id="Ellipse_26-2" data-name="Ellipse 26" cx="17" cy="17" r="17" transform="translate(217.1 74.26) rotate(45)" fill="#696969"/>
      </g>
      <g transform="matrix(0.71, -0.71, 0.71, 0.71, -53.02, 128)" filter="url(#Ellipse_30)">
        <circle id="Ellipse_30-2" data-name="Ellipse 30" cx="17" cy="17" r="17" transform="translate(128 163.36) rotate(45)" fill="#696969"/>
      </g>
      <g transform="matrix(0.71, -0.71, 0.71, 0.71, -53.02, 128)" filter="url(#Ellipse_6)">
        <circle id="Ellipse_6-2" data-name="Ellipse 6" cx="17" cy="17" r="17" transform="translate(68.6 44.56) rotate(45)" fill="#696969"/>
      </g>
      <g transform="matrix(0.71, -0.71, 0.71, 0.71, -53.02, 128)" filter="url(#Ellipse_22)">
        <circle id="Ellipse_22-2" data-name="Ellipse 22" cx="17" cy="17" r="17" transform="translate(38.9 74.26) rotate(45)" fill="#696969"/>
      </g>
      <g transform="matrix(0.71, -0.71, 0.71, 0.71, -53.02, 128)" filter="url(#Ellipse_18)">
        <circle id="Ellipse_18-2" data-name="Ellipse 18" cx="17" cy="17" r="17" transform="translate(98.3 14.86) rotate(45)" fill="#696969"/>
      </g>
      <g transform="matrix(0.71, -0.71, 0.71, 0.71, -53.02, 128)" filter="url(#Ellipse_3)">
        <circle id="Ellipse_3-2" data-name="Ellipse 3" cx="17" cy="17" r="17" transform="translate(157.7 133.66) rotate(45)" fill="#696969"/>
      </g>
      <g transform="matrix(0.71, -0.71, 0.71, 0.71, -53.02, 128)" filter="url(#Ellipse_4)">
        <circle id="Ellipse_4-2" data-name="Ellipse 4" cx="17" cy="17" r="17" transform="translate(187.4 163.36) rotate(45)" fill="#696969"/>
      </g>
    </g>
  </g>
</svg>
